/* XPM */
static char * collec_xpm[] = {
"64 64 370 2",
"  	c #738B46",
". 	c #7D974B",
"+ 	c #738B47",
"@ 	c #708745",
"# 	c #748B48",
"$ 	c #788F4B",
"% 	c #768D49",
"& 	c #718845",
"* 	c #738A47",
"= 	c #748B47",
"- 	c #758C48",
"; 	c #718846",
"> 	c #728947",
", 	c #7A934D",
"' 	c #78904B",
") 	c #738A48",
"! 	c #7A934A",
"~ 	c #799249",
"{ 	c #738A46",
"] 	c #778E4A",
"^ 	c #7C964B",
"/ 	c #758D49",
"( 	c #768D4A",
"_ 	c #728946",
": 	c #748C48",
"< 	c #778F4A",
"[ 	c #78914B",
"} 	c #758D48",
"| 	c #79914C",
"1 	c #79904C",
"2 	c #78914C",
"3 	c #718946",
"4 	c #758E47",
"5 	c #758D47",
"6 	c #789049",
"7 	c #7B944B",
"8 	c #79924A",
"9 	c #768E48",
"0 	c #758C49",
"a 	c #778F4B",
"b 	c #768D48",
"c 	c #7C954C",
"d 	c #7A9349",
"e 	c #728A47",
"f 	c #758C47",
"g 	c #7A944A",
"h 	c #789149",
"i 	c #768F48",
"j 	c #728945",
"k 	c #768E49",
"l 	c #7A924D",
"m 	c #738B48",
"n 	c #7B944A",
"o 	c #79904B",
"p 	c #748C49",
"q 	c #728A46",
"r 	c #77904B",
"s 	c #C8CEBE",
"t 	c #D2D5CC",
"u 	c #A5B28C",
"v 	c #8A9C66",
"w 	c #93A472",
"x 	c #83975C",
"y 	c #D6D8D1",
"z 	c #E1E1E1",
"A 	c #ADB897",
"B 	c #8EA06B",
"C 	c #99A97A",
"D 	c #86995F",
"E 	c #798D46",
"F 	c #809148",
"G 	c #7C8F47",
"H 	c #79924C",
"I 	c #95A577",
"J 	c #9AA97D",
"K 	c #CBD0C2",
"L 	c #ABB695",
"M 	c #7A9052",
"N 	c #7E9358",
"O 	c #788D4E",
"P 	c #7D9047",
"Q 	c #899749",
"R 	c #829348",
"S 	c #BFC6B2",
"T 	c #AAB595",
"U 	c #6C8244",
"V 	c #7B9048",
"W 	c #84974A",
"X 	c #7E9249",
"Y 	c #9FAC84",
"Z 	c #A4B08B",
"` 	c #ABB696",
" .	c #AFB99C",
"..	c #90A171",
"+.	c #728848",
"@.	c #8E9667",
"#.	c #8F9768",
"$.	c #778B4D",
"%.	c #819059",
"&.	c #84915B",
"*.	c #748C47",
"=.	c #677B42",
"-.	c #708845",
";.	c #79924D",
">.	c #779048",
",.	c #D5D8D1",
"'.	c #92A274",
").	c #758A4B",
"!.	c #B4AA93",
"~.	c #B6AB95",
"{.	c #808F57",
"].	c #989B72",
"^.	c #9D9E78",
"/.	c #799349",
"(.	c #778F48",
"_.	c #A4B18E",
":.	c #8A9C69",
"<.	c #7D9157",
"[.	c #75894A",
"}.	c #83905C",
"|.	c #AB9D91",
"1.	c #AD9D92",
"2.	c #8A9365",
"3.	c #999779",
"4.	c #9C987D",
"5.	c #7E8E55",
"6.	c #667A41",
"7.	c #84915C",
"8.	c #B3A694",
"9.	c #8E7089",
"0.	c #8D6F89",
"a.	c #9F898E",
"b.	c #9C858D",
"c.	c #ABA588",
"d.	c #667B41",
"e.	c #D4D7CE",
"f.	c #DFDFDD",
"g.	c #DEDFDD",
"h.	c #A8B493",
"i.	c #9F8A8E",
"j.	c #B5AA95",
"k.	c #AAA488",
"l.	c #728847",
"m.	c #6F8645",
"n.	c #7B954A",
"o.	c #7C964A",
"p.	c #7A934C",
"q.	c #7F9556",
"r.	c #819657",
"s.	c #7C9153",
"t.	c #798E52",
"u.	c #758B4C",
"v.	c #B4A894",
"w.	c #A69490",
"x.	c #90748A",
"y.	c #967C8B",
"z.	c #B0A88E",
"A.	c #7A8C50",
"B.	c #687C42",
"C.	c #7B944C",
"D.	c #A79591",
"E.	c #94798B",
"F.	c #7A8C51",
"G.	c #778E48",
"H.	c #768E4A",
"I.	c #967C8C",
"J.	c #99808C",
"K.	c #A99891",
"L.	c #7F9154",
"M.	c #6D8344",
"N.	c #A49190",
"O.	c #819356",
"P.	c #778E4B",
"Q.	c #93996D",
"R.	c #949870",
"S.	c #A18D8E",
"T.	c #A18D8F",
"U.	c #92768A",
"V.	c #7E9053",
"W.	c #967D8C",
"X.	c #79914B",
"Y.	c #7C954A",
"Z.	c #768A4C",
"`.	c #809750",
" +	c #829951",
".+	c #AFA88D",
"++	c #B1A88F",
"@+	c #98808B",
"#+	c #A49090",
"$+	c #7F8F56",
"%+	c #778E4C",
"&+	c #8C9565",
"*+	c #B5AA93",
"=+	c #B5AB93",
"-+	c #85925D",
";+	c #768C49",
">+	c #A6A383",
",+	c #969B71",
"'+	c #718945",
")+	c #8D9666",
"!+	c #A7A483",
"~+	c #979B72",
"{+	c #91986B",
"]+	c #ACA68A",
"^+	c #B3A991",
"/+	c #B1A393",
"(+	c #B0A293",
"_+	c #AFA78D",
":+	c #999C74",
"<+	c #9B9D76",
"[+	c #A5A282",
"}+	c #7E8F55",
"|+	c #92996C",
"1+	c #90976A",
"2+	c #AAA587",
"3+	c #969B70",
"4+	c #738848",
"5+	c #879360",
"6+	c #ADA68B",
"7+	c #A9A487",
"8+	c #B4AA92",
"9+	c #768F4A",
"0+	c #809156",
"a+	c #899461",
"b+	c #93976E",
"c+	c #A89D88",
"d+	c #A29A82",
"e+	c #7A8654",
"f+	c #ABA489",
"g+	c #9F9687",
"h+	c #9B9384",
"i+	c #A79E8C",
"j+	c #959A70",
"k+	c #A89E89",
"l+	c #8D8471",
"m+	c #AFA48F",
"n+	c #74706D",
"o+	c #696666",
"p+	c #8B847B",
"q+	c #93986E",
"r+	c #B0A590",
"s+	c #A59A86",
"t+	c #7E7973",
"u+	c #918A7E",
"v+	c #83895F",
"w+	c #788C4D",
"x+	c #7C8D51",
"y+	c #818A5C",
"z+	c #948B77",
"A+	c #ACA18C",
"B+	c #A6A184",
"C+	c #72804F",
"D+	c #708646",
"E+	c #7F8B58",
"F+	c #AEA38E",
"G+	c #A99F8A",
"H+	c #A29F81",
"I+	c #647741",
"J+	c #778F49",
"K+	c #7D9150",
"L+	c #808B59",
"M+	c #7D8857",
"N+	c #ACA58A",
"O+	c #B3A892",
"P+	c #A69C87",
"Q+	c #9F9581",
"R+	c #9D937F",
"S+	c #A4A280",
"T+	c #8D9765",
"U+	c #838F5C",
"V+	c #7A924B",
"W+	c #99907C",
"X+	c #A19783",
"Y+	c #999D73",
"Z+	c #768C4B",
"`+	c #768C4C",
" @	c #79914A",
".@	c #969C6E",
"+@	c #9D9F77",
"@@	c #ACA689",
"#@	c #A59B86",
"$@	c #9E9480",
"%@	c #AAA08A",
"&@	c #B3A993",
"*@	c #A5A381",
"=@	c #8F9867",
"-@	c #86925E",
";@	c #697E43",
">@	c #7D9254",
",@	c #7E9355",
"'@	c #7A904E",
")@	c #9EA078",
"!@	c #A29883",
"~@	c #998F7B",
"{@	c #A79D88",
"]@	c #708746",
"^@	c #7B9051",
"/@	c #7B9152",
"(@	c #788F4C",
"_@	c #959B6E",
":@	c #A8A485",
"<@	c #A9A485",
"[@	c #A9A586",
"}@	c #989577",
"|@	c #888568",
"1@	c #918E71",
"2@	c #9C997A",
"3@	c #878568",
"4@	c #A39F80",
"5@	c #9A9D75",
"6@	c #738945",
"7@	c #758A46",
"8@	c #768B47",
"9@	c #7D8F47",
"0@	c #819248",
"a@	c #7C954B",
"b@	c #768C47",
"c@	c #748B46",
"d@	c #7B8F47",
"e@	c #7D9048",
"f@	c #7F9148",
"g@	c #7C8E47",
"h@	c #768B46",
"i@	c #798D47",
"j@	c #7A8E47",
"k@	c #839348",
"l@	c #7B8E47",
"m@	c #7A8F52",
"n@	c #7B9053",
"o@	c #768C4A",
"p@	c #839448",
"q@	c #788D46",
"r@	c #97A777",
"s@	c #7E9354",
"t@	c #95A675",
"u@	c #708645",
"v@	c #6F8445",
"w@	c #677A42",
"x@	c #697C43",
"y@	c #677942",
"z@	c #738947",
"A@	c #6D7E43",
"B@	c #6C8043",
"C@	c #6A7E43",
"D@	c #6E7F43",
"E@	c #6A7C42",
"F@	c #667941",
"G@	c #708545",
"H@	c #7E9047",
"I@	c #677B43",
"J@	c #6F8545",
"K@	c #6C8044",
"L@	c #708444",
"M@	c #7E9148",
"N@	c #697B42",
"O@	c #6E8445",
"P@	c #788D47",
"Q@	c #778C46",
"R@	c #728845",
"S@	c #738946",
"T@	c #697D42",
"U@	c #687C43",
"V@	c #6B8143",
"W@	c #687B42",
"X@	c #6B8044",
"Y@	c #6B7F43",
"Z@	c #6A7D43",
"`@	c #7D9253",
" #	c #809557",
".#	c #798F4E",
"  . . . . + @ # $ % & & & & * * = = - % - ; ; & & & & @ @ > $ $ , , ' $ ) @ @ @ @ @ @ * = ! . ~ = = = = @ @ { = % $ ] = = = = & ",
"  . ^   { / ( # _ * - # & & * * { _ * = : - - _ _ { * * * { _ > ' ' % - % ( < [ < @ @ & & _ { + = } | | ] ( - = * _ _ = = & & @ ",
"  . ^ & @ % $ # @ _ % - & & * * _ _ { = = % % _ _ * = = = { @ & $ $ - = % $ 1 , 2 @ @ @ @ @ @ _ = } , , $ $ - = _ @ ; = = @ @ @ ",
"3 4 5 @ @ 6 7 8 6 9 > * 0 0 _ _ _ & _ * = - - # # * _ _ _ _ & & * * % % ' | | | a @ @ @ @ @ @ _ = b c c % % = = _ @ ; = = 0 0 * ",
"@ @ @ @ @ d . . . ~ @ ; $ $ _ & & & _ * * = = % % e ; & & & & & @ @ ( $ | , | $ ] @ @ @ @ @ @ _ = 9 . . f = = = _ @ ; = = $ $ - ",
"> @ @ @ @ d . g h i * * 0 0 * { _ & _ * * * * - - = * _ & j _ _ 3 ; # 0 a | ' % % * * # : 3 @ ; _ = h h = = % k - * * = = 0 0 = ",
"% @ @ @ @ d . 9 @ * $ ] @ @ - % * & _ * * _ _ = = - % # _ { = = = = & @ : $ ] = - $ $ l , m @ @ @ @ @ @ = = [ , | $ ] = = @ @ * ",
"0 ; ; @ @ h n 5 @ > ] % @ @ / ] * & _ > * + + = = - % # _ { = = * * & @ # ] 0 * = o o 2 2 * @ @ @ @ @ @ = = < 2 ' $ ] = = @ @ { ",
"_ $ $ @ @ @ @ @ @ @ @ @ @ @ 2 , p ; ; @ > , , k % % % - = = = = @ @ @ @ @ @ @ @ q . . _ @ @ @ @ @ @ @ @ = = ; @ # $ ] = = @ @ @ ",
"_ $ $ @ @ @ @ @ @ @ @ @ @ @ 2 , p ; ; @ > , , k % % % - = = = = @ @ @ @ @ @ @ @ q . . _ @ @ @ @ @ @ @ @ = = ; @ # $ ] = = @ @ @ ",
"_ $ $ @ @ @ @ @ @ @ @ @ @ @ ] ' = & : | r q q s t t t u % # & & @ @ @ @ @ @ @ @ & } } & @ _ * * * * * * & & v w x - * & & * * & ",
"_ $ $ @ @ @ @ @ @ @ @ @ @ @ ] $ = & } , [ & & y z z z A % - & & @ @ @ @ @ @ @ @ & = = & @ { = = = = = = @ @ B C D = { @ @ = = & ",
"; * * @ @ @ @ E F G { _ @ @ ' H # @ + < % @ @ I J K z L _ _ @ @ @ @ @ @ @ @ @ @ @ ; ; @ @ & ; ; ; ; ; ; @ @ M N O ; & @ @ = = & ",
"@ @ @ @ @ @ @ P Q R = * @ @ 2 , : @ > % - @ @ * * S z T @ @ @ @ @ @ @ @ @ @ @ @ @ @ @ @ @ @ @ @ @ @ @ @ @ @ @ @ @ @ @ @ @ = = & ",
"U @ @ : p ; @ V W X _ _ @ @ k < * @ ; * * @ @ Y Z `  ...@ @ @ +.@.#.$.@ %.#.&.@ @ @ @ @ @ ; _ _ _ _ _ _ @ @ *.9 { @ @ @ @ _ _ _ ",
"=.@ -.;., * @ >.. ~ @ @ @ @ * = 3 @ @ @ @ @ @ ,.z '.@ @ @ @ @ ).!.~.{.@ ].~.^.@ @ @ @ @ @ { = = = = = = @ @ /.. i @ @ @ @ @ @ * ",
"=.@ @ r ' > @ 4 ! (.@ @ @ @ q * {   _ @ @ & & y z _.:.<.@ [.{.}.|.1.2.{.3.1.4.{.5.@ @ @ @ _ * * * * * { @ @ >.! 5 @ @ @ @ & & { ",
"6.@ @ @ @ @ @ @ @ @ @ @ @ @ @ @ h . 6 @ & = = y z z z T @ 7.~.8.9.0.1.~.a.0.b.~.c.@ @ @ @ @ @ @ @ @ @ @ @ @ @ @ @ @ @ @ @ = = & ",
"d.@ @ @ @ @ @ @ @ @ @ @ @ @ @ @ h . >.@ & = = e.f.g.g.h.@ 7.~.8.9.0.1.~.i.9.b.j.k.l.l.@ @ @ @ @ @ @ @ @ @ @ @ @ @ @ @ @ @ = = @ ",
"m.@ & n.o.p.H : @ @ @ @ @ @ @ @ & & & @ & = = q.r.s.t.u.@ 7.~.8.9.0.1.~.v.8.w.x.y.z.z.A.@ 6 o.(.@ @ @ @ @ @ @ @ _ = _ @ @ @ @ B.",
"@ @ & ^ . C., / @ @ @ @ @ @ @ @ @ @ @ @ & = = $ $ > @ @ @ 7.~.8.9.0.1.~.~.~.D.0.E.~.~.F.@ h . >.@ @ @ @ @ @ @ @ _ = { @ @ @ @ =.",
"& _ _ 9 G.< < # ; & & & & & @ @ ) % H.a < ] ] * > ; @ @ @ 7.~.8.9.0.I.J.K.~.D.0.E.~.~.L.% k G.f { _ @ @ 0 % _ @ & ; _ { _ @ @ M.",
"& * * = = - % * ; ; & & & & @ @ 0 $ | , l $ $ ; @ @ @ @ @ 7.~.8.9.0.0.0.N.~.D.0.E.~.~.O.$ - = = = { @ @ P.$ > @ @ @ ; = = @ @ @ ",
"& * * { { # - # * * & _ _ _ _ _ * # ( | ' % % # # 0 / e @ A.Q.R.S.T.U.0.N.~.D.0.E.~.~.V.# = = * _ 3 @ @ % % * _ # / : _ _ @ @ @ ",
"& * * _ _ * = - % - _ _ = = = = 3 @ * $ ] = = $ $ H , / @ @ @ ).!.~.W.0.N.~.D.0.E.~.~.F.@ { = _ @ @ @ @ = = = = < , < @ @ @ @ @ ",
"; _ _ : : : - - % - { { = = { { ; @ > % 0 { { X.X.' a # @ @ @ ).!.~.W.0.N.~.D.0.E.~.~.F.@ _ { * * e @ @ { { { { / a / @ @ @ @ @ ",
"; @ -.;., < % % % - = = = = & @ @ @ @ @ @ @ @ Y.. *.@ @ @ @ @ ).!.~.W.0.N.~.D.0.E.~.~.F.@ @ @ p , ' @ @ @ @ @ @ @ @ @ @ @ @ @ @ ",
"; ; ; | H ] % % % - = = = = & @ @ @ +.Z.Z.Z.Z.`. +0 @ @ @ @ @ )..+++@+x.#+8.w.x.W.~.~.$+Z.Z.Z.%+H a @ @ ; ; @ @ @ & & & & @ @ & ",
"+ , H _ & _ _ _ _ * % - & & @ @ @ @ &+!.!.!.!.*+=+-+@ _ = = = = ;+;+>+j.a.9.b.j.j.~.~.*+!.!.!.,+@ @ @ @ H , * @ # $ $ $ ] @ @ ' ",
"+ , l '+& _ _ _ _ * % - & & @ @ @ @ )+~.~.~.~.~.~.-+@ _ = = = = = = !+~.a.0.b.~.~.~.~.~.~.~.~.~+@ @ @ @ H , * @ # $ $ $ ] @ @ [ ",
"_ ] ] & @ _ * # # * ; ; @ @ @ @ {+>+]+~.~.~.~.~.~.c.>+>+!+!+!+!+!+!+^+~./+1.(+~.~.~.~.~.~.~.~._+>+:+@ @ e e & @ ; _ _ _ _ @ @ _ ",
"; % % @ @ _ * # 0 ) @ @ @ @ @ @ <+~.~.~.~.~.~.~.~.~.~.~.~.~.~.~.~.~.~.~.~.~.~.~.~.~.~.~.~.~.~.~.~.[+@ @ @ @ @ @ @ @ @ @ @ @ @ @ ",
"& * e @ @ / < : > }+~+|+@ @ 1+~+2+~.~.~.~.~.~.~.~.~.~.~.~.~.~.~.~.~.~.~.~.~.~.~.~.~.~.~.~.~.~.~.~._+~+3+4+@ @ @ @ @ @ @ @ @ @ @ ",
"@ @ @ @ @ r , / @ 5+~.6+@ @ 7+~.~.~.~.~.~.~.~.~.~.~.~.~.~.~.~.~.~.~.~.~.~.~.~.~.~.~.~.~.~.~.~.~.~.~.~.8+).@ @ @ @ @ @ @ @ @ @ @ ",
"+ @ @ ; ; / 9+0+a+b+c+d+e+e+f+~.~.~.~.~.~.~.~.~.~.~.~.~.~.~.~.~.~.~.~.~.~.~.~.~.~.~.~.g+h+h+h+i+~.~.~.8+).@ @ @ @ @ @ @ @ @ @ @ ",
"d @ @ = = & @ j+~.k+l+l+l+l+m+~.~.~.~.~.~.~.~.~.~.~.~.~.~.~.~.~.~.~.~.~.~.~.~.~.~.~.~.n+o+o+o+p+~.~.~.8+).@ @ @ @ @ @ @ @ @ @ @ ",
"h @ @ = = _ ; q+r+s+l+l+l+l+m+~.~.~.~.~.~.~.~.~.~.~.~.~.~.~.~.~.~.~.~.~.~.~.~.~.~.~.~.t+n+n+n+u+~.~.~.8+).@ 3 _ & @ @ @ @ ; ; @ ",
"@ @ @ = = ] $ v+l+l+l+l+l+l+m+~.~.~.~.~.~.~.~.~.~.~.~.~.~.~.~.~.~.~.~.~.~.~.~.~.~.~.~.~.~.~.~.~.~.~.~.8+).@ /.. i @ @ @ ; $ $ _ ",
"@ @ @ = = ] $ v+l+l+l+l+l+l+m+~.~.~.~.~.~.~.~.~.~.~.~.~.~.~.~.~.~.~.~.~.~.~.~.~.~.~.~.~.~.~.~.~.~.~.~.8+).@ /.. i @ @ @ ; $ $ _ ",
"@ @ @ & & = - w+x+y+l+l+l+l+m+~.~.~.~.~.m+z+z+z+z+A+~.~.~.~.~.~.~.~.~.~.~.~.~.~.~.~.~.~.~.~.~.~.~.B+C+C+D+@ /.. i @ @ @ @ ; ; @ ",
"@ @ @ @ @ { = % $ E+l+l+l+l+m+~.~.~.~.~.F+l+l+l+l+G+~.~.~.~.~.~.~.~.~.~.~.~.~.~.~.~.~.~.~.~.~.~.~.H+I+I+m.@ /.. i @ @ @ @ @ @ @ ",
"_ H.H.@ @ ; ; J+7 K+L+L+M+M+N+~.~.~.~.~.O+P+P+P+P+Q+R+G+~.~.~.~.~.~.~.~.~.~.~.~.~.~.~.~.~.~.~.S+T+U+I+I+m.@ J+V+- @ @ @ @ _ _ # ",
"e , l -.@ @ @ >.. 7 $ ] = = 2+~.~.~.~.~.~.~.~.~.~.W+l+X+~.~.~.~.~.~.~.~.~.~.~.~.~.~.~.~.~.~.~.Y+= D+I+I+m.@ % $ # @ @ @ @ = = ] ",
"3 H.H.Z+`+# * 9 ~  @$ $ % % .@+@@@~.~.~.~.~.~.~.~.#@$@X+#@%@~.~.~.~.~.~.~.~.r+#@#@#@#@&@~.~.~.*@=@-@;@;@; _ # 0 > @ ; * * _ _ # ",
"@ @ ; >@,@'@$ % = - $ $ $ $ $ $ )@~.~.~.~.~.~.~.~.~.~.!@l+~@~.~.~.~.~.~.~.~.{@l+l+l+l+r+~.~.~.~.~.[+@ @ = = ; @ @ @ e $ ] @ @ @ ",
"@ @ ]@^@/@(@] - * # ( ( ( ( ] ] _@:@:@:@:@<@<@[@[@:@:@}@|@1@<@<@:@:@:@:@:@:@2@|@|@3@3@4@:@:@:@:@:@5@@ @ { * & @ 6@7@8@( % _ _ @ ",
"@ @ @ @ @ { = _ @ @ @ @ @ @ * = 3 @ @ @ & = = $ $ > @ _ = = = = @ @ @ @ @ @ ; = * @ @ @ @ @ @ @ @ @ @ @ @ @ @ @ 9@Q 0@@ ; $ $ _ ",
"@ @ @ @ @ { = _ @ @ @ @ @ @ * = 3 @ @ @ & = = $ $ > @ _ = = = = @ @ @ @ @ @ ; = * @ @ @ @ @ @ @ @ @ @ @ @ @ @ @ 9@Q 0@@ ; $ $ _ ",
"@ @ @ @ @ @ @ @ @ @ @ @ @ @ ( $ * @ @ @ & = = a@^ 9 = _ @ @ @ @ @ @ @ @ @ @ @ @ @ @ @ @ @ @ @ @ @ & = = = = & @ { b@c@@ ; $ $ _ ",
"@ @ @ @ @ @ @ @ @ @ @ @ @ @ ] $ * @ @ @ & = = ^ . (.= _ @ @ @ @ @ @ @ @ @ @ @ @ @ @ @ @ @ @ @ @ @ & = = = = ; @ _ = { @ ; $ $ _ ",
"0 0 0 @ @ @ @ @ @   ~ h _ _ > * ; @ ; { _ ; ; *.*.= = _ @ @ @ @ @ @ @ @ 3 { _ @ @ { { { { { { ; @ @ ; ; = = { { d@R e@{ { * * { ",
"$ $ $ @ @ @ @ @ @ *.. Y.* * -.@ @ @ _ = * @ @ @ @ { = _ @ @ @ @ @ @ @ @ _ = q @ & = = = = = = _ @ @ @ @ = = = = f@Q R = = @ @ * ",
"# # # @ @ ; _ & @ q (.i _ _ : / _ @ & _ _ @ @ ) # * _ _ _ ; @ @ @ @ E g@h@_ ; @ & = = _ _ * = { _ ; @ @ _ _ * = i@9@j@= = @ @ _ ",
"@ @ @ @ @ { = _ @ @ @ @ & & 2 , : @ @ @ @ @ @ ] $ > @ _ = { @ @ @ @ k@Q l@@ @ @ & = = & @ { = = = { @ @ @ @ { = _ @ ; = = @ @ @ ",
"@ @ ]@m@n@o@= _ @ @ & & j j 9+r m & & @ @ @ @ 0 % _ @ _ = * & & @ @ f@p@q@@ @ & ; { { @ @ _ { { { _ @ @ @ @ _ { _ & _ { { @ @ @ ",
"@ @ > r@C s@= _ & _ = = = = & @ _ = _ @ @ @ @ @ @ @ @ _ = = = = @ @ * = _ @ ; = * @ @ @ @ @ @ @ @ @ @ @ @ @ @ @ _ = { @ @ @ @ @ ",
"@ @ l.t@r@>@= _ & _ = = = = & @ _ = _ u@u@@ @ @ @ @ @ _ = = = * @ @ * = _ @ _ = * @ @ @ @ @ @ @ @ @ @ @ @ @ @ @ _ = { @ @ @ @ @ ",
"@ @ @ 0 ( # = = = = = = = = & @ _ = v@w@x@@ @ * = ; @ @ @ @ @ @ @ @ * = = = = = * @ @ @ @ @ @ @ @ @ @ @ @ @ @ @ _ = = = = = = & ",
"@ @ @ = = = = = = = = = = = & @ _ = v@y@x@@ @ = = ; @ @ @ @ @ @ @ @ * = = = = = * @ @ @ @ @ @ @ @ @ @ @ @ @ @ @ _ = = = = = = & ",
"@ @ @ & & j j { = = = = = = ;@=.* n z@y@A@R R B@C@u@{ { { _ @ @ @ @ * = _ & _ = * @ @ _ { P R j@@ & { { { { { { _ & & & ; = = & ",
"@ @ @ @ @ & & { = = = = = = =.I++ . = y@D@Q Q E@F@G@= = = { @ @ @ @ * = _ @ ; = * @ @ * = R Q H@@ & = = = = = = _ @ @ @ @ = = & ",
"U _ _ _ _ & @ & _ { = *.< < I@I+J@9 _ K@L@M@M@N@F@O@_ _ _ _ _ _ _ _ = = { _ _ _ _ # # _ _ P@g@Q@_ _ _ _ = = _ _ & @ @ @ R@f@f@S@",
"T@= = = = & @ @ @ ; = - , , U@I+V@@ @ @ & = = W@y@M.@ @ @ ; = = = = = = = = q @ ; $ $ ; @ @ @ _ = { @ @ = = ; @ @ @ @ @ 6@Q Q 7@",
"T@{ { { { & @ @ @ ; = = < < X@B.M.@ -.; _ = = Y@Z@J@; & @ & { { { { `@ #.#= { ; _ ] ] * * ; @ _ = * ; ; { { _ ; & @ @ @ R@0@0@6@"};
