/* XPM */
static char * floor_xpm[] = {
"64 64 230 2",
"  	c #778E49",
". 	c #778E48",
"+ 	c #748B47",
"@ 	c #7D9048",
"# 	c #889649",
"$ 	c #819348",
"% 	c #758B47",
"& 	c #718846",
"* 	c #738A47",
"= 	c #718845",
"- 	c #708745",
"; 	c #728946",
"> 	c #738A46",
", 	c #788F49",
"' 	c #758C48",
") 	c #768D48",
"! 	c #758C47",
"~ 	c #778C47",
"{ 	c #7B8F48",
"] 	c #778D48",
"^ 	c #819558",
"/ 	c #899C64",
"( 	c #879B62",
"_ 	c #788E4F",
": 	c #708845",
"< 	c #748A46",
"[ 	c #788D47",
"} 	c #778F48",
"| 	c #869A5F",
"1 	c #92A370",
"2 	c #90A26E",
"3 	c #7B9053",
"4 	c #758C49",
"5 	c #7A904F",
"6 	c #7B9151",
"7 	c #7A9050",
"8 	c #768C4A",
"9 	c #738B47",
"0 	c #7B8F47",
"a 	c #859549",
"b 	c #748C46",
"c 	c #758F44",
"d 	c #78904B",
"e 	c #738A49",
"f 	c #8C9F69",
"g 	c #809248",
"h 	c #798E47",
"i 	c #748D45",
"j 	c #748F43",
"k 	c #758E46",
"l 	c #768D49",
"m 	c #738946",
"n 	c #7A8E47",
"o 	c #7B8E47",
"p 	c #7A8D47",
"q 	c #748B48",
"r 	c #798F4E",
"s 	c #84985E",
"t 	c #879A63",
"u 	c #869961",
"v 	c #768F47",
"w 	c #778E4B",
"x 	c #778E4A",
"y 	c #728947",
"z 	c #778C46",
"A 	c #869548",
"B 	c #879649",
"C 	c #849448",
"D 	c #778D47",
"E 	c #788F4B",
"F 	c #768D4A",
"G 	c #738B45",
"H 	c #748E44",
"I 	c #758D47",
"J 	c #738B46",
"K 	c #728945",
"L 	c #788C46",
"M 	c #778B46",
"N 	c #728A47",
"O 	c #758E45",
"P 	c #778F4A",
"Q 	c #788E4D",
"R 	c #7B9150",
"S 	c #7C9252",
"T 	c #788F4C",
"U 	c #738A48",
"V 	c #788F4A",
"W 	c #758D48",
"X 	c #728A46",
"Y 	c #789248",
"Z 	c #799448",
"` 	c #769047",
" .	c #758F47",
"..	c #758E47",
"+.	c #6E8444",
"@.	c #6B8043",
"#.	c #6D8344",
"$.	c #6F8645",
"%.	c #6C8244",
"&.	c #6B8143",
"*.	c #6E8544",
"=.	c #6B8044",
"-.	c #647741",
";.	c #697E43",
">.	c #677B42",
",.	c #657841",
"'.	c #667941",
").	c #6E8344",
"!.	c #728845",
"~.	c #6A7F43",
"{.	c #687B42",
"].	c #677A41",
"^.	c #798A46",
"/.	c #819248",
"(.	c #687C42",
"_.	c #708645",
":.	c #6C8043",
"<.	c #7A8C46",
"[.	c #798D47",
"}.	c #768C47",
"|.	c #7F9148",
"1.	c #829348",
"2.	c #829349",
"3.	c #7F9249",
"4.	c #788E48",
"5.	c #768E49",
"6.	c #869549",
"7.	c #779048",
"8.	c #789148",
"9.	c #748C47",
"0.	c #7A8F48",
"a.	c #718946",
"b.	c #799348",
"c.	c #7A9549",
"d.	c #738C46",
"e.	c #768F48",
"f.	c #7B9649",
"g.	c #789049",
"h.	c #758D49",
"i.	c #718745",
"j.	c #738C44",
"k.	c #748E43",
"l.	c #728A44",
"m.	c #768E48",
"n.	c #7C8F47",
"o.	c #718945",
"p.	c #718944",
"q.	c #738A45",
"r.	c #758A46",
"s.	c #738945",
"t.	c #718847",
"u.	c #768C48",
"v.	c #738B49",
"w.	c #728948",
"x.	c #758B4B",
"y.	c #768C4D",
"z.	c #7E9048",
"A.	c #788D48",
"B.	c #718746",
"C.	c #798E51",
"D.	c #768B46",
"E.	c #7F9251",
"F.	c #84985D",
"G.	c #7E9356",
"H.	c #7E9047",
"I.	c #8E9E5D",
"J.	c #96A777",
"K.	c #8A9D67",
"L.	c #7C904E",
"M.	c #7D9256",
"N.	c #798E50",
"O.	c #789048",
"P.	c #768D47",
"Q.	c #7A9448",
"R.	c #799148",
"S.	c #79914C",
"T.	c #79924C",
"U.	c #728846",
"V.	c #748846",
"W.	c #758644",
"X.	c #748644",
"Y.	c #6C8044",
"Z.	c #6D8244",
"`.	c #798D46",
" +	c #7F9147",
".+	c #6F8545",
"++	c #6C8144",
"@+	c #667942",
"#+	c #667A42",
"$+	c #7A8D46",
"%+	c #839348",
"&+	c #7D9254",
"*+	c #819659",
"=+	c #708545",
"-+	c #90A26F",
";+	c #7C9253",
">+	c #768D4B",
",+	c #7E9354",
"'+	c #778D4B",
")+	c #83975C",
"!+	c #899D63",
"~+	c #97A777",
"{+	c #94A574",
"]+	c #7C9155",
"^+	c #758F45",
"/+	c #7B924F",
"(+	c #809457",
"_+	c #7F9356",
":+	c #758D46",
"<+	c #728B44",
"[+	c #728A45",
"}+	c #809148",
"|+	c #748A45",
"1+	c #748D46",
"2+	c #748F44",
"3+	c #778E4C",
"4+	c #7C9151",
"5+	c #768C49",
"6+	c #768C4E",
"7+	c #788E4C",
"8+	c #778D4A",
"9+	c #748A4B",
"0+	c #748A47",
"a+	c #748B49",
"b+	c #758C4A",
"c+	c #879857",
"d+	c #8DA06A",
"e+	c #8C9E69",
"f+	c #83975E",
"g+	c #728847",
"  . + + + + + + + + + + + + + + + + + @ # # $ % + + + + + & & + + * = - - - - - ; + + ; - - - - - = > + + + + + + + + + + + + + ",
", . > > + + + + > > ' ) ) ! + + + + ; ~ @ @ { ] ^ / / / ( _ : ; ; ; ; ; ; ; ; ; ; ; ; = - - = ; ; > + + + + + + > ; ; > + + + + ",
"  ) ; < [ [ [ [ < ; )   . + * * * > & ; + + ! } | 1 1 1 2 3 - - - = * + + + + + ; = = - - - & + + 4 5 6 7 8 * * ; = = ; + * * * ",
"! + 9 0 a a a a 0 9 + ! + ; = = = & > + + + b c d 6 6 6 7 e - - - = * + + + + + + * * ; - - & + + 5 f 1 2 3 = = ; * * + + ; = = ",
"+ + > [ g g g g h + + + + ; ; ; ; ; + b i i i j k l l l ' ; m n o p ! + + + * ; q l l * - - ; ' l r s t u _ ; ; > + + + + & - - ",
"+ * = ; + + + + + + + + + + + + + + + i j j j j v w w w x y z A B C D + + + > - q E E q - - y x w F ; - - > + + + + + + 9 & - - ",
"> > > G H H H H I 4 + + + + + + + + + b b b b b J y y y y & K z L M ; & & & ; > + ' ' + > > > y y N > > > + + + ; & & & & ; > > ",
"& ; * b O O O O P Q ' + + + + + + + > > > > > > & - - - - - - & & & & & & & ; + + + + * > > > y y N > > > + + + ; & & ; * + ' ' ",
"- = * 4 F F F F R S l + + + + + + * = - - - - - - - - - - - & * + + + + + + + + + + + ; - - y x w F ; - - > + + + + + ' P , , , ",
"; > + q 4 4 4 4 w T x l l * ; ; ; ; ; * q q q ; = - - - - - & + + + ; ; ; ; ; + > ; ; ; ; ; * U U * = - - > + + + + + ' l ) ) ) ",
"* * * + + + + + + ' x E V * = = = & + W F F 4 * & - - - - - & + + + X X X X X * & - - & * * ; - - - - - - ; * * * * * + + * * * ",
"= = = ; + + + + )   , , , ! * * * + ) ' & & & = - - - - - - & + + I Y Z Z Z ` & - - - - = = - - - - - - - - = = = = = ; + ; = = ",
"; ; ; > + + + + ) , , , , ' + + + + ) * - - & * y ; ; ; ; ; ; ; ; >  .` ` ` ..; +.@.@.#.- - - - - $.%.@.&.*.- - = ; ; > + + U U ",
"+ + + + + + + + ) , , ,   ! + + + + + ; - - * P l + + + + + > - - - - - - - & * =.-.-.;.- - - - - +.>.,.'.).!.!.> + + + + l w w ",
"& ; * > & & & & ; > ! ' ! ; & & & & & ; > > + , + & & & & & ; > > ; - - - - - & ~.-.-.~.> > ; - - +.{.'.].^././.n + + + + * y y ",
"& ; q * - - - - - = * + + ; & & & & & ; + + ! . + & & & & & ; > > ; - - - - - - &.(.(.#.+ + * & & _.:.~.:.<././.[.> > * + & - - ",
"+ q x q - - - - - = * + + + + + + + + + + + + + + + + + + + > - - - - - - - - - _.$.$.& + + + + + + * * * ; !.!.= - - ; + & - - ",
"; * x 4 ; ; ; ; ; > + + + + + + + + ; > + + + + + + + + + ; ; ; ; ; - - - - = ; = = = = ; ; }.|.g @ < ; ; : - - - - - = ; ; ; ; ",
"= ; l l ! ! ! ! + + + + + D [ [ [ ~ ; ; * * % [ }.+ + + + & = > * > = - - - = > ; K K = - - M C a /.< - - - = = - - - - - > + + ",
"* 9 q )         ' + + + ! g a a a 1.~ ; = = z C { + + + + & - = = = - - - - - = ; * * ; - - ; D [ }.= - - ; * * & - - - - > + + ",
"+ + + ! ) ) ) ) ! + > ; > @ 2.2.2.3.4.+ ; ; }.|.h + + + + & - - - = * U U U y - & ; ; & - - & + + + ; ; ; ; ; ; = - - = ; q l l ",
"+ + + + + + + + + + & - = '       , , ) + + + + + + + + + & - - - & F E E E 4 & - - - - - - & 9 + + + + 9 & - - - - - ; + l w w ",
"+ + + ' x x x x x 5.) ' ' * ; ; ; > ! ! + + + + + + + + + & - - - & q ' ' ' ' 4 q > > > > > ; & & & & & & ; > > > > > ; & ; y y ",
"{ h ! ' x x x x x     . ) > & & & ; * + + + + + [ { { { n m - - - - ; > > > + 4 q > > > > > ; - - - - - - > + + * > > ; & ; y y ",
"# C [ + + + + + + + + + + + + + + + + + + + + + |.# # # 6.z - - - - - - - - - - - - - - - - - - - - - - - > + + ; - - ; + l w w ",
"@ { }.+ + + + + + ! 7.Y 8.9.; ; ; ; + + + + + + 0.3.3.3.3.}.a.- - - - - - - - - - - - - - - - - - - - - - & ; ; = - - = ; * U U ",
"+ + * + + + + + + ) b.c.Z d.= = = & + ! ! ! ! ! . , , , , ! ; - - - - - - - - - - - - - - - - = = = - - - - = = & & & & - - - - ",
"+ * & ; + + + + l x ) I I + * * * + )           , , , , , > - - - - - - - - - - - - - - - - = > * > = - - ; * * ' F F q - - - - ",
"7.e.9.q l l l l l l + + + ' l l l l )   V V   ) ) ) ) ) ) ; : ; ; ; ; ; ; ; & - - - - - - - = ; ; ; - - - G i i 9.q q * ; : - - ",
"f.c.g.V w w w w h.+ ! ! ! x w w w x ' l E E x + + + + + + & & * + + + + + + > - - - - i.!.!.= - - - - - - j.k.k.l.- - ; 9 & - - ",
"e.m.W + y y y y * D g 1.$ D y y y * l l ' ' ' + + + + + + & - & & & & & & & = - - - - z /./.n.= - - - - - o.p.p.q.r.r.m & ; > > ",
"> > + ; - - - - * 4.g 1.$ z & & & y x l + + + + + + + + + & - - - - = & & & = - - - - z /./.n.= - - - - - - - - s.r.r.m t.; > > ",
"- = * ; - - - - q x u.! ! + + + + ' x l + + + + + + + + + & - - - = > + + + > - - - - i.!.!.= - - - - - - - - - - - - y v.t.- - ",
"; > + * ; ; ; ; { 3.] + + l l l l l l ' + + + + ' l l l l ; - - - = * + + + > - - - - - - - = ; ; ; - - - - - - - - - & w.x.y.y.",
"' ' + + + + + + z.1.A.! ' l F F F l q + + + + + l x x x x y - - - = * + + + > - - - - - = = a.* * > = - - - - - - = = - B.y.C.C.",
"x x ' + + + + + }.A..   . * & & & ; 9 + + + + + + ' ' ' q & - - - = * + + + > - - - - & * * ; = = = - - - - - - ; * * ; - t.w.w.",
"l l + + + + + + + + ) ) ) * ; ; ; ; + + + + ' l + ; ; ; ; ; & - - - ; ; ; ; a.- D.o o E.F.F.G.& - - - - - - - - & ; ; & - - - - ",
"+ + + + + + + + + + + + + + + + + + + + + + ' x U - - - - > > - - - - - - - - - H.# # I.J.J.K.w.- - - - - - - - - - - - - - - - ",
". ) 9.+ + + + + + + + + + + + + + 9.) + & & ; y * > > > > ; = - - - - - - - ; 4 4.{ { L.M.M.N.& - & q 4 4 ; - - - - - - - - - - ",
"' ! * + ' ' ' ' ! + + + + * > > > + O.P.& & & & }.{ { { n m & * 9 N = - - - ; 4 q > > ; & & & & & ; ' 4 4 ; - - - - - - - = & & ",
"- - - 9 , , , , ) + + + + & - - - > Q.R.+ + + + |.# # # 6.z * S.T.d ; - - - - - - - - ; + + + + + * & - - - - - - - - - - > + + ",
"; ; ; + ) ) ) ) ! + + + + > ; ; ; ; - U.+ + + + V.W.W.W.X.i.; 5.x h.& - - - - - - - - z g g 0 m ; ; ; ; ; + + + ; - - - - & ; ; ",
"+ + + + + + + + + + + + + * * * * B.(.:.* * * + Y.,.,.,.'.Z.& + + * = - - - - = - - - `.C C  +D.r.< > * * ' ) ) > - - - - - = = ",
"+ + + + + + + + + + + + + ; = = = .+>.~.= = ; + ++@+@+@+#+#.& + + * = - - - = > ; = = K r.r.$+%+C /.< = = & & & = - - - - ; * * ",
"+ + > > + + + + &+*+Q 4 4 * ; ; ; - =.#.; ; ; + =+++++++++.+= ; ; ; - - - - = ; ; ; ; = - - r.|.g @ m - - & ; ; = - - - - > + + ",
"+ * = ; + + + + ( -+;+>+F ' + + + * & ; + + + + + + + + + & - - - - - - - - - - ; + + ; - - & + + * = - - > + + ; - - - - * + + ",
"& a.; * + + + + 7 ,+'+' ' + + + + + * * + + + + + + + + + & - - - & q 4 4 4 q - = & & = - - & + + + > > > ; & & : - - & * 4 x x ",
"; > + * > > > > > > + + + + + + + + > * + + + + + + + + + & - - - & 4 x x x 4 * ; & & & & & ; > > > > > > ; & & & & & ; * ' 4 4 ",
"  . ! ; - - - - - = * + + + + + + * = ; + + + + + + + + + & - - - = * + + + ' x ' + + + + + > - - - - - - > + + + + + ; - - - - ",
"* * ; = - - - - X + + + + + + + + + > > + + * ; ; ; ; ; ; : - - - - & ; ; ; ; * y ; ; ; ; ; & - - - - - - > + + > ; ; ; ; q q q ",
"& & = = = = = = + . ! + + + + + + + + }.[ [ }.= = = = = = = - - - - - - - - - - - - - - - - - - - - - - - ; * * & - - & * 4 F F ",
") ) + * * * * * + ! + + + + + + + + + { a a |.+ * * * * * * ; - - - - - - - - - - - - - - - - - - - - - - - = = - - - - = & & & ",
", . * > + + + + > > ' ) ) ! + + + + > [ g g @ ) ,+F.F.F.)+Q a.- - - - - - - - - - - - - - - : ; ; & - - - & ; ; * U U ; - - - - ",
", ) ; ; ! ! ! ! ; ; ) ,   ! + + + * = ; + + ! } !+~+~+~+{+]+- - - - - - - - - - - - - - - - & * + > = - - > + + l w w q - - - - ",
"' ! * n 1.1.1.1.n * ! ' ! ; & & & a.; * + + b ^+/+(+(+(+_+x.= > > > > > > > ; - - - - - - - - & & = - - - j.H H J y y * > = - - ",
"+ + > n 1.1.1.1.0.+ + + + ; & & & ; * b b b i j :+' ' ' ' ; = > > > > > > > ; - - - - m L L r.- - - - - - <+j.j.[+K K ; > ; & & ",
"+ * = ; ! ! ! ! % + + + + + + + + + + i j j j j v E E E x y - - - - - - - - - - - - - n B B }+= - - - - - - - - |+z z < - > + + ",
"> > ; G i i i i I 4 + + + + + + + + + b i i i i + U U U * & - - - - ; ; ; ; a.- - - - r.o o z i.- - - - - - - - !.s.s.m w.; ; ; ",
"; ; + 1+2+2+2+2+5.3+' + + + + + + + * * * * * * & - - - - - - - - = * + + + > - - - - - - - - = = = - - - - - - - - - t.e w.w.w.",
"- = * ' l l l l 5 4+5++ + + + + + * & = = = = = - - - - - - - - - = * + + + > - - - - - - - = > * > = - - - - - - - - - t.6+C.C.",
"; ; + q 4 4 4 4 7+r 8+l h.* ; ; ; ; ; y U U * ; = - - - - - - - - = * + + + > - - - - = ; ; ; ; ; ; - - - - - - = ; ; = - 9+y.y.",
"+ + + + + + + + q ' x E x * - - - = * ' w w l + ; - - - - - - - - = > + + + > - = !.!.0+F F a+- - - - - - - - - ; + + ; - - - - ",
"& ; * ' b+b+b+b+r 5 F ' ' 9 > > > ; a.; y y ; & : - - - - ; ; - - - = & & & = - p /./.c+d+d+s y - - - - - - - - = & & = - - - - ",
"& ; * ' b+b+b+b+r 5 F ' ' 9 > > > ; a.; y y ; & : - - - - ; ; - - - - - - - & y { 1.1.c+e+e+f+g+- - ; y y & - - - - - - - - - - "};
